<svg height="117" viewBox="0 0 696 117" width="696" xmlns="http://www.w3.org/2000/svg"><g fill-rule="evenodd"><path d="m100.903 87.872-50.452 29.128-50.451-29.128v-58.25l50.451 29.122 50.452-29.128v19.421l-50.452 29.122-31.015-17.904v19.44l31.015 17.872 50.452-29.122z"/><path d="m12.595 22.316 37.856 21.877 37.833-21.881-37.833-21.824-12.562 7.253 25.189 14.575-12.638 7.281-25.226-14.571z"/><g transform="translate(135 39)"><path d="m11.989 7.157h-11.989v-6.157h30.678v6.157h-11.992v31.65h-6.697z"/><path d="m43.37 1.239h6.589v15.715h18.147v-15.715h6.591v37.807h-6.591v-15.935h-18.147v15.935h-6.589z"/><path d="m89.818 1.239h27.979v5.995h-21.39v9.72h18.958v5.997h-18.958v10.1h21.658v5.995h-28.247z"/><path d="m179.878 39.694c-2.773 0-5.329-.507-7.671-1.513-2.341-1.007-4.37-2.384-6.091-4.132-1.721-1.745-3.071-3.807-4.051-6.185-.979-2.375-1.47-4.913-1.47-7.613v-.108c0-2.701.482-5.23 1.443-7.59.962-2.357 2.312-4.427 4.051-6.211 1.739-1.781 3.798-3.186 6.173-4.214 2.375-1.025 5.003-1.537 7.884-1.537 1.73 0 3.303.145 4.726.431 1.423.289 2.727.693 3.918 1.215 1.187.524 2.284 1.145 3.294 1.865 1.007.721 1.962 1.51 2.86 2.375l-4.264 4.916c-1.513-1.405-3.117-2.541-4.808-3.403-1.694-.865-3.619-1.296-5.78-1.296-1.8 0-3.466.35-4.994 1.052-1.531.702-2.855 1.658-3.97 2.863-1.118 1.206-1.98 2.619-2.592 4.241-.614 1.619-.919 3.348-.919 5.184v.109c0 1.835.305 3.574.919 5.21.612 1.64 1.474 3.072 2.592 4.295 1.115 1.224 2.439 2.186 3.97 2.888 1.528.702 3.194 1.055 4.994 1.055 2.305 0 4.286-.441 5.943-1.323 1.655-.883 3.294-2.081 4.913-3.593l4.268 4.322c-.974 1.043-1.99 1.971-3.05 2.782-1.064.808-2.207 1.51-3.43 2.104-1.227.596-2.568 1.046-4.024 1.349-1.459.308-3.071.462-4.834.462"/><path d="m225.678 33.591c1.863 0 3.578-.353 5.135-1.055 1.559-.702 2.894-1.655 4.006-2.86 1.112-1.206 1.981-2.619 2.61-4.242.627-1.621.941-3.347.941-5.183v-.108c0-1.839-.314-3.575-.941-5.215-.629-1.636-1.507-3.059-2.637-4.265-1.127-1.205-2.484-2.169-4.06-2.89-1.576-.72-3.297-1.079-5.163-1.079-1.865 0-3.577.35-5.136 1.052-1.558.702-2.896 1.658-4.005 2.863-1.112 1.206-1.983 2.619-2.61 4.241-.627 1.619-.94 3.348-.94 5.184v.109c0 1.835.313 3.574.94 5.21.627 1.64 1.507 3.063 2.637 4.268 1.127 1.206 2.48 2.17 4.059 2.888 1.578.723 3.298 1.082 5.164 1.082zm-.109 6.103c-2.917 0-5.582-.512-7.993-1.54-2.414-1.025-4.481-2.421-6.212-4.186-1.727-1.764-3.077-3.825-4.05-6.185-.97-2.357-1.459-4.868-1.459-7.532v-.108c0-2.665.489-5.175 1.459-7.536.973-2.357 2.342-4.43 4.105-6.211s3.851-3.195 6.265-4.241c2.411-1.043 5.077-1.564 7.994-1.564s5.582.512 7.993 1.537c2.411 1.028 4.481 2.423 6.212 4.186 1.726 1.767 3.077 3.828 4.05 6.185.971 2.36 1.459 4.871 1.459 7.535v.109c0 2.664-.488 5.174-1.459 7.535-.973 2.356-2.341 4.426-4.105 6.208-1.766 1.784-3.855 3.198-6.266 4.241s-5.075 1.567-7.993 1.567z"/><path d="m258.841 1.239h6.587v31.812h19.877v5.995h-26.464z"/><path d="m297.672 1.239h6.589v31.812h19.876v5.995h-26.465z"/><path d="m336.504 1.239h27.975v5.995h-21.387v9.72h18.958v5.997h-18.958v10.1h21.658v5.995h-28.246z"/><path d="m395.697 39.694c-2.772 0-5.328-.507-7.67-1.513-2.342-1.007-4.37-2.384-6.092-4.132-1.72-1.745-3.07-3.807-4.05-6.185-.98-2.375-1.471-4.913-1.471-7.613v-.108c0-2.701.482-5.23 1.444-7.59.961-2.357 2.312-4.427 4.051-6.211 1.738-1.781 3.797-3.186 6.172-4.214 2.375-1.025 5.004-1.537 7.885-1.537 1.73 0 3.303.145 4.725.431 1.423.289 2.728.693 3.919 1.215 1.188.524 2.284 1.145 3.294 1.865 1.007.721 1.962 1.51 2.86 2.375l-4.264 4.916c-1.514-1.405-3.117-2.541-4.808-3.403-1.693-.865-3.62-1.296-5.78-1.296-1.8 0-3.467.35-4.994 1.052-1.532.702-2.855 1.658-3.97 2.863-1.118 1.206-1.98 2.619-2.592 4.241-.615 1.619-.92 3.348-.92 5.184v.109c0 1.835.305 3.574.92 5.21.612 1.64 1.474 3.072 2.592 4.295 1.115 1.224 2.438 2.186 3.97 2.888 1.527.702 3.194 1.055 4.994 1.055 2.306 0 4.285-.441 5.943-1.323 1.655-.883 3.294-2.081 4.912-3.593l4.269 4.322c-.974 1.043-1.989 1.971-3.051 2.782-1.063.808-2.206 1.51-3.43 2.104-1.226.596-2.568 1.046-4.023 1.349-1.459.308-3.071.462-4.835.462"/><path d="m432.639 7.396h-11.989v-6.157h30.676v6.157h-11.989v31.65h-6.698z"/><path d="m464.126 39.046h6.589v-37.807h-6.589z"/><path d="m483.029 1.239h7.346l11.395 29.058 11.342-29.058h7.182l-15.715 38.075h-5.835z"/><path d="m532.177 1.239h27.976v5.995h-21.387v9.72h18.958v5.997h-18.958v10.1h21.659v5.995h-28.248z"/></g></g></svg>