<svg xmlns="http://www.w3.org/2000/svg" width="696" height="117" viewBox="0 0 696 117">
    <g fill="#FFF" fill-rule="evenodd">
        <path d="M100.903 87.872L50.451 117 0 87.872v-58.25l50.451 29.122 50.452-29.128v19.421L50.451 78.159 19.436 60.255v19.44l31.015 17.872 50.452-29.122v19.427"/>
        <path d="M12.595 22.316l37.856 21.877 37.833-21.881L50.451.488 37.889 7.741l25.189 14.575-12.638 7.281-25.226-14.571-12.619 7.29"/>
        <g>
            <path d="M146.989 46.157H135V40h30.678v6.157h-11.992v31.65h-6.697v-31.65M178.37 40.239h6.589v15.715h18.147V40.239h6.591v37.807h-6.591V62.111h-18.147v15.935h-6.589V40.239M224.818 40.239h27.979v5.995h-21.39v9.72h18.958v5.997h-18.958v10.1h21.658v5.995h-28.247V40.239M314.878 78.694c-2.773 0-5.329-.507-7.671-1.513-2.341-1.007-4.37-2.384-6.091-4.132-1.721-1.745-3.071-3.807-4.051-6.185-.979-2.375-1.47-4.913-1.47-7.613v-.108c0-2.701.482-5.23 1.443-7.59a19.197 19.197 0 0 1 4.051-6.211c1.739-1.781 3.798-3.186 6.173-4.214 2.375-1.025 5.003-1.537 7.884-1.537 1.73 0 3.303.145 4.726.431 1.423.289 2.727.693 3.918 1.215a18.575 18.575 0 0 1 3.294 1.865 25.567 25.567 0 0 1 2.86 2.375l-4.264 4.916c-1.513-1.405-3.117-2.541-4.808-3.403-1.694-.865-3.619-1.296-5.78-1.296-1.8 0-3.466.35-4.994 1.052a12.383 12.383 0 0 0-3.97 2.863c-1.118 1.206-1.98 2.619-2.592 4.241-.614 1.619-.919 3.348-.919 5.184v.109c0 1.835.305 3.574.919 5.21.612 1.64 1.474 3.072 2.592 4.295a12.172 12.172 0 0 0 3.97 2.888c1.528.702 3.194 1.055 4.994 1.055 2.305 0 4.286-.441 5.943-1.323 1.655-.883 3.294-2.081 4.913-3.593l4.268 4.322a24.803 24.803 0 0 1-3.05 2.782 20.374 20.374 0 0 1-3.43 2.104 17.183 17.183 0 0 1-4.024 1.349c-1.459.308-3.071.462-4.834.462M360.678 72.591c1.863 0 3.578-.353 5.135-1.055 1.559-.702 2.894-1.655 4.006-2.86 1.112-1.206 1.981-2.619 2.61-4.242.627-1.621.941-3.347.941-5.183v-.108c0-1.839-.314-3.575-.941-5.215-.629-1.636-1.507-3.059-2.637-4.265-1.127-1.205-2.484-2.169-4.06-2.89-1.576-.72-3.297-1.079-5.163-1.079-1.865 0-3.577.35-5.136 1.052-1.558.702-2.896 1.658-4.005 2.863-1.112 1.206-1.983 2.619-2.61 4.241-.627 1.619-.94 3.348-.94 5.184v.109c0 1.835.313 3.574.94 5.21.627 1.64 1.507 3.063 2.637 4.268 1.127 1.206 2.48 2.17 4.059 2.888 1.578.723 3.298 1.082 5.164 1.082zm-.109 6.103c-2.917 0-5.582-.512-7.993-1.54-2.414-1.025-4.481-2.421-6.212-4.186-1.727-1.764-3.077-3.825-4.05-6.185-.97-2.357-1.459-4.868-1.459-7.532v-.108c0-2.665.489-5.175 1.459-7.536a19.1 19.1 0 0 1 4.105-6.211c1.763-1.781 3.851-3.195 6.265-4.241 2.411-1.043 5.077-1.564 7.994-1.564s5.582.512 7.993 1.537c2.411 1.028 4.481 2.423 6.212 4.186 1.726 1.767 3.077 3.828 4.05 6.185.971 2.36 1.459 4.871 1.459 7.535v.109c0 2.664-.488 5.174-1.459 7.535a19.092 19.092 0 0 1-4.105 6.208c-1.766 1.784-3.855 3.198-6.266 4.241-2.411 1.043-5.075 1.567-7.993 1.567zM393.841 40.239h6.587v31.812h19.877v5.995h-26.464V40.239M432.672 40.239h6.589v31.812h19.876v5.995h-26.465V40.239M471.504 40.239h27.975v5.995h-21.387v9.72h18.958v5.997h-18.958v10.1h21.658v5.995h-28.246V40.239M530.697 78.694c-2.772 0-5.328-.507-7.67-1.513-2.342-1.007-4.37-2.384-6.092-4.132-1.72-1.745-3.07-3.807-4.05-6.185-.98-2.375-1.471-4.913-1.471-7.613v-.108c0-2.701.482-5.23 1.444-7.59a19.18 19.18 0 0 1 4.051-6.211c1.738-1.781 3.797-3.186 6.172-4.214 2.375-1.025 5.004-1.537 7.885-1.537 1.73 0 3.303.145 4.725.431 1.423.289 2.728.693 3.919 1.215a18.54 18.54 0 0 1 3.294 1.865 25.567 25.567 0 0 1 2.86 2.375l-4.264 4.916c-1.514-1.405-3.117-2.541-4.808-3.403-1.693-.865-3.62-1.296-5.78-1.296-1.8 0-3.467.35-4.994 1.052a12.372 12.372 0 0 0-3.97 2.863c-1.118 1.206-1.98 2.619-2.592 4.241-.615 1.619-.92 3.348-.92 5.184v.109c0 1.835.305 3.574.92 5.21.612 1.64 1.474 3.072 2.592 4.295a12.162 12.162 0 0 0 3.97 2.888c1.527.702 3.194 1.055 4.994 1.055 2.306 0 4.285-.441 5.943-1.323 1.655-.883 3.294-2.081 4.912-3.593l4.269 4.322a24.666 24.666 0 0 1-3.051 2.782 20.294 20.294 0 0 1-3.43 2.104 17.175 17.175 0 0 1-4.023 1.349c-1.459.308-3.071.462-4.835.462M567.639 46.396H555.65v-6.157h30.676v6.157h-11.989v31.65h-6.698v-31.65M599.126 78.046h6.589V40.239h-6.589zM618.029 40.239h7.346l11.395 29.058 11.342-29.058h7.182l-15.715 38.075h-5.835l-15.715-38.075M667.177 40.239h27.976v5.995h-21.387v9.72h18.958v5.997h-18.958v10.1h21.659v5.995h-28.248V40.239"/>
        </g>
    </g>
</svg>
